<svg width="16.000000" height="16.000000" viewBox="0 0 16 16" fill="none" xmlns="http://www.w3.org/2000/svg" xmlns:xlink="http://www.w3.org/1999/xlink">
	<desc>
			Created with Pixso.
	</desc>
	<defs>
		<clipPath id="clip13_300">
			<rect id="Alien" rx="-0.500000" width="15.000000" height="15.000000" transform="translate(0.500000 0.500000)" fill="white" fill-opacity="0"/>
		</clipPath>
	</defs>
	<rect id="Alien" rx="-0.500000" width="15.000000" height="15.000000" transform="translate(0.500000 0.500000)" fill="#FFFFFF" fill-opacity="0"/>
	<g clip-path="url(#clip13_300)">
		<path id="Vector" d="M8 1C6.4 1 4.88 1.63 3.75 2.75C2.63 3.88 2 5.4 2 7C2 8.5 2.78 10.44 4.1 12.18C5.42 13.94 6.88 15 8 15C9.11 15 10.57 13.94 11.89 12.18C13.21 10.43 14 8.5 14 7C13.99 5.4 13.36 3.88 12.24 2.75C11.11 1.63 9.59 1 8 1ZM11.1 11.58C10.01 13.03 8.76 14 8 14C7.23 14 5.98 13.03 4.89 11.58C3.72 10.03 3 8.27 3 7C3 5.67 3.52 4.4 4.46 3.46C5.4 2.52 6.67 2 8 2C9.32 2 10.59 2.52 11.53 3.46C12.47 4.4 13 5.67 13 7C13 8.27 12.27 10.03 11.1 11.58ZM7.5 8.5C7.5 7.83 7.23 7.2 6.76 6.73C6.29 6.26 5.66 6 5 6C4.73 6 4.48 6.1 4.29 6.29C4.1 6.48 4 6.73 4 7C4 7.66 4.26 8.29 4.73 8.76C5.2 9.23 5.83 9.5 6.5 9.5C6.76 9.5 7.01 9.39 7.2 9.2C7.39 9.01 7.5 8.76 7.5 8.5ZM5 7C5.39 7 5.77 7.15 6.06 7.43C6.34 7.72 6.5 8.1 6.5 8.5C6.1 8.5 5.72 8.34 5.43 8.06C5.15 7.77 5 7.39 5 7ZM11 6C10.33 6 9.7 6.26 9.23 6.73C8.76 7.2 8.5 7.83 8.5 8.5C8.5 8.76 8.6 9.01 8.79 9.2C8.98 9.39 9.23 9.5 9.5 9.5C9.82 9.5 10.15 9.43 10.45 9.3C10.76 9.18 11.03 8.99 11.26 8.76C11.49 8.53 11.68 8.26 11.8 7.95C11.93 7.65 12 7.32 12 7C12 6.73 11.89 6.48 11.7 6.29C11.51 6.1 11.26 6 11 6ZM9.5 8.5C9.5 8.1 9.65 7.72 9.93 7.43C10.22 7.15 10.6 7 11 7C11 7.39 10.84 7.77 10.56 8.06C10.27 8.34 9.89 8.5 9.5 8.5ZM9.5 11.5C9.5 11.63 9.44 11.75 9.35 11.85C9.25 11.94 9.13 12 9 12L7 12C6.86 12 6.74 11.94 6.64 11.85C6.55 11.75 6.5 11.63 6.5 11.5C6.5 11.36 6.55 11.24 6.64 11.14C6.74 11.05 6.86 11 7 11L9 11C9.13 11 9.25 11.05 9.35 11.14C9.44 11.24 9.5 11.36 9.5 11.5Z" fill="#FFFFFF" fill-opacity="1.000000" fill-rule="nonzero"/>
	</g>
</svg>
