<svg width="42.000000" height="35.991516" viewBox="0 0 42 35.9915" fill="none" xmlns="http://www.w3.org/2000/svg" xmlns:xlink="http://www.w3.org/1999/xlink">
	<desc>
			Created with Pixso.
	</desc>
	<defs/>
	<path id="Vector" d="M30.37 0C26.5 0 23.11 1.66 21 4.47C18.88 1.66 15.49 0 11.62 0C8.54 0 5.58 1.22 3.4 3.4C1.22 5.58 0 8.54 0 11.62C0 24.75 19.46 35.37 20.28 35.81C20.5 35.93 20.75 35.99 21 35.99C21.24 35.99 21.49 35.93 21.71 35.81C22.53 35.37 42 24.75 42 11.62C41.99 8.54 40.77 5.58 38.59 3.4C36.41 1.22 33.45 0 30.37 0ZM21 32.77C17.57 30.78 3 21.69 3 11.62C3 9.33 3.91 7.14 5.52 5.52C7.14 3.91 9.33 3 11.62 3C15.27 3 18.33 4.94 19.61 8.06C19.72 8.33 19.91 8.57 20.16 8.73C20.41 8.9 20.7 8.99 21 8.99C21.29 8.99 21.58 8.9 21.83 8.73C22.08 8.57 22.27 8.33 22.38 8.06C23.66 4.93 26.72 3 30.37 3C32.66 3 34.85 3.91 36.47 5.52C38.08 7.14 38.99 9.33 39 11.62C39 21.67 24.42 30.77 21 32.77Z" fill="#11B0C8" fill-opacity="1.000000" fill-rule="nonzero"/>
</svg>
