<svg width="42.000000" height="35.991516" viewBox="0 0 42 35.9915" fill="none" xmlns="http://www.w3.org/2000/svg" xmlns:xlink="http://www.w3.org/1999/xlink">
	<desc>
			Created with Pixso.
	</desc>
	<defs/>
	<path id="Vector" d="M42 11.62C42 24.75 22.53 35.37 21.71 35.81C21.49 35.93 21.24 35.99 21 35.99C20.75 35.99 20.5 35.93 20.28 35.81C19.46 35.37 0 24.75 0 11.62C0 8.54 1.22 5.58 3.4 3.4C5.58 1.22 8.54 0 11.62 0C15.49 0 18.88 1.66 21 4.47C23.11 1.66 26.5 0 30.37 0C33.45 0 36.41 1.22 38.59 3.4C40.77 5.58 41.99 8.54 42 11.62Z" fill="#11B0C8" fill-opacity="1.000000" fill-rule="nonzero"/>
</svg>
