<svg width="24.000000" height="24.000000" viewBox="0 0 24 24" fill="none" xmlns="http://www.w3.org/2000/svg" xmlns:xlink="http://www.w3.org/1999/xlink">
	<desc>
			Created with Pixso.
	</desc>
	<defs>
		<clipPath id="clip13_691">
			<rect id="Planet" rx="-0.500000" width="23.000000" height="23.000000" transform="translate(0.500000 0.500000)" fill="white" fill-opacity="0"/>
		</clipPath>
	</defs>
	<rect id="Planet" rx="-0.500000" width="23.000000" height="23.000000" transform="translate(0.500000 0.500000)" fill="#FFFFFF" fill-opacity="0"/>
	<g clip-path="url(#clip13_691)">
		<path id="Vector" d="M22.97 5.68C22.26 4.45 20.36 4.17 17.49 4.87C16.16 3.84 14.57 3.21 12.89 3.04C11.22 2.87 9.53 3.17 8.02 3.92C6.51 4.66 5.24 5.81 4.35 7.24C3.46 8.66 2.99 10.31 3 12C3 12.38 3.02 12.77 3.07 13.15C0.47 15.84 0.51 17.43 1.02 18.31C1.5 19.14 2.49 19.5 3.8 19.5C4.72 19.48 5.62 19.35 6.5 19.12C7.83 20.15 9.43 20.78 11.1 20.95C12.77 21.12 14.46 20.82 15.97 20.07C17.48 19.33 18.75 18.18 19.64 16.75C20.53 15.33 21 13.68 21 12C21 11.61 20.97 11.23 20.92 10.85C22.09 9.63 22.87 8.47 23.14 7.48C23.32 6.79 23.27 6.19 22.97 5.68ZM12 4.49C13.69 4.5 15.34 5.07 16.67 6.13C18 7.19 18.93 8.67 19.31 10.33C17.71 11.83 15.54 13.38 13.49 14.56C10.91 16.04 8.66 16.96 6.88 17.47C5.78 16.44 5.01 15.11 4.68 13.64C4.35 12.17 4.47 10.64 5.02 9.24C5.57 7.84 6.53 6.64 7.78 5.79C9.02 4.95 10.49 4.49 12 4.49ZM2.31 17.55C2.18 17.32 2.25 16.87 2.52 16.33C2.79 15.83 3.11 15.36 3.49 14.92C3.86 16 4.43 17 5.17 17.86C3.56 18.13 2.55 17.96 2.31 17.55ZM12 19.5C10.73 19.5 9.49 19.18 8.38 18.56C10.41 17.84 12.37 16.94 14.23 15.86C16.26 14.7 18.05 13.44 19.49 12.19C19.44 14.15 18.62 16 17.22 17.37C15.82 18.73 13.95 19.49 12 19.5ZM21.69 7.09C21.53 7.68 21.11 8.36 20.51 9.07C20.14 7.99 19.56 7 18.82 6.13C20.15 5.91 21.39 5.93 21.68 6.44C21.76 6.58 21.77 6.8 21.69 7.09Z" fill="#FFFFFF" fill-opacity="1.000000" fill-rule="nonzero"/>
	</g>
</svg>
