<svg width="16.000000" height="16.000000" viewBox="0 0 16 16" fill="none" xmlns="http://www.w3.org/2000/svg" xmlns:xlink="http://www.w3.org/1999/xlink">
	<desc>
			Created with Pixso.
	</desc>
	<defs>
		<clipPath id="clip13_296">
			<rect id="Pulse" rx="-0.500000" width="15.000000" height="15.000000" transform="translate(0.500000 0.500000)" fill="white" fill-opacity="0"/>
		</clipPath>
	</defs>
	<rect id="Pulse" rx="-0.500000" width="15.000000" height="15.000000" transform="translate(0.500000 0.500000)" fill="#FFFFFF" fill-opacity="0"/>
	<g clip-path="url(#clip13_296)">
		<path id="Vector" d="M15 8C15 8.13 14.94 8.25 14.85 8.35C14.75 8.44 14.63 8.5 14.5 8.5L12.8 8.5L10.44 13.22C10.4 13.3 10.34 13.37 10.26 13.42C10.18 13.47 10.09 13.5 10 13.5L9.97 13.5C9.87 13.49 9.78 13.46 9.7 13.4C9.62 13.34 9.56 13.26 9.53 13.17L5.95 3.79L3.95 8.2C3.91 8.29 3.85 8.36 3.77 8.42C3.68 8.47 3.59 8.5 3.5 8.5L1.5 8.5C1.36 8.5 1.24 8.44 1.14 8.35C1.05 8.25 1 8.13 1 8C1 7.86 1.05 7.74 1.14 7.64C1.24 7.55 1.36 7.5 1.5 7.5L3.17 7.5L5.54 2.29C5.58 2.2 5.65 2.12 5.73 2.07C5.81 2.02 5.91 1.99 6.01 2C6.11 2 6.2 2.03 6.29 2.09C6.37 2.14 6.43 2.22 6.46 2.32L10.06 11.75L12.05 7.77C12.09 7.69 12.15 7.62 12.23 7.57C12.31 7.52 12.4 7.5 12.5 7.5L14.5 7.5C14.63 7.5 14.75 7.55 14.85 7.64C14.94 7.74 15 7.86 15 8Z" fill="#BFDE42" fill-opacity="1.000000" fill-rule="nonzero"/>
	</g>
</svg>
