<svg width="19.500000" height="19.500000" viewBox="0 0 19.5 19.5" fill="none" xmlns="http://www.w3.org/2000/svg" xmlns:xlink="http://www.w3.org/1999/xlink">
	<desc>
			Created with Pixso.
	</desc>
	<defs/>
	<path id="Vector" d="M9.75 0C7.82 0 5.93 0.57 4.33 1.64C2.72 2.71 1.48 4.23 0.74 6.01C0 7.8 -0.19 9.76 0.18 11.65C0.56 13.54 1.49 15.28 2.85 16.64C4.21 18 5.95 18.93 7.84 19.31C9.73 19.68 11.69 19.49 13.48 18.75C15.26 18.01 16.78 16.77 17.85 15.16C18.92 13.56 19.5 11.67 19.5 9.75C19.49 7.16 18.46 4.68 16.64 2.85C14.81 1.03 12.33 0 9.75 0ZM9.75 18C8.11 18 6.52 17.51 5.16 16.6C3.8 15.7 2.75 14.41 2.12 12.9C1.5 11.39 1.34 9.74 1.65 8.14C1.97 6.54 2.76 5.07 3.91 3.91C5.07 2.76 6.54 1.97 8.14 1.65C9.74 1.34 11.39 1.5 12.9 2.12C14.41 2.75 15.7 3.8 16.6 5.16C17.51 6.52 18 8.11 18 9.75C17.99 11.93 17.12 14.03 15.58 15.58C14.03 17.12 11.93 17.99 9.75 18ZM11.25 14.25C11.25 14.44 11.17 14.63 11.03 14.78C10.88 14.92 10.69 15 10.5 15C10.1 15 9.72 14.84 9.43 14.56C9.15 14.27 9 13.89 9 13.5L9 9.75C8.8 9.75 8.61 9.67 8.46 9.53C8.32 9.38 8.25 9.19 8.25 9C8.25 8.8 8.32 8.61 8.46 8.46C8.61 8.32 8.8 8.25 9 8.25C9.39 8.25 9.77 8.4 10.06 8.68C10.34 8.97 10.5 9.35 10.5 9.75L10.5 13.5C10.69 13.5 10.88 13.57 11.03 13.71C11.17 13.86 11.25 14.05 11.25 14.25ZM8.25 5.62C8.25 5.4 8.31 5.18 8.43 5C8.56 4.81 8.73 4.67 8.94 4.58C9.15 4.5 9.37 4.47 9.59 4.52C9.81 4.56 10.01 4.67 10.17 4.82C10.32 4.98 10.43 5.18 10.47 5.4C10.52 5.62 10.49 5.84 10.41 6.05C10.32 6.26 10.18 6.43 10 6.56C9.81 6.68 9.59 6.75 9.37 6.75C9.07 6.75 8.79 6.63 8.57 6.42C8.36 6.2 8.25 5.92 8.25 5.62Z" fill="#FFFFFF" fill-opacity="1.000000" fill-rule="nonzero"/>
</svg>
